# xmcd
#
# Track frame offsets: 
#        150
#        16050
#        34720
#        49645
#        64475
#        73762
#        84532
#        103297
#        116450
#        128037
#
# Disc length: 1981 seconds
#
# Revision: 0
# Processed by: cddbd v1.5.1PL2 Copyright (c) Steve Scherf et al.
# Submitted via: ExactAudioCopy v0.95b3
#
DISCID=8507bb0a
DTITLE=Buddy Emmons, Jimmy Crawford, Sonny Garrish, Russ Hicks, J.Hugh
DTITLE=ey - The Nashville Bar Association
DYEAR=1900
DGENRE=Country
TTITLE0=Warmin' Up The Band
TTITLE1=Please Come To Boston
TTITLE2=Slidewalk
TTITLE3=The Big Hurt
TTITLE4=Mystery Movie Theme
TTITLE5=Devil's Dream
TTITLE6=The Air That I Breathe
TTITLE7=Horn On The Cob
TTITLE8=El Gato Diablo (The Devil Cat)
TTITLE9=Ghost Riders In The Sky
EXTD=
EXTT0=
EXTT1=
EXTT2=
EXTT3=
EXTT4=
EXTT5=
EXTT6=
EXTT7=
EXTT8=
EXTT9=
PLAYORDER=
